<svg width="237" height="239" viewBox="0 0 237 239" fill="none" xmlns="http://www.w3.org/2000/svg">
<rect width="237" height="238.612" rx="16" fill="#4D6262"/>
<path d="M54 118.423C57.0317 138.772 180.839 89.2893 179.748 118.423" stroke="white" stroke-width="20" stroke-linecap="round"/>
<path d="M54 68.4436C57.0317 88.7928 180.839 39.3097 179.748 68.4436" stroke="white" stroke-width="20" stroke-linecap="round"/>
<path d="M54 168.403C57.0317 188.752 180.839 139.269 179.748 168.403" stroke="white" stroke-width="20" stroke-linecap="round"/>
<path d="M0 61.2653H25.0204C27.2295 61.2653 29.0204 63.0562 29.0204 65.2653V76.6122C29.0204 78.8214 27.2295 80.6122 25.0204 80.6122H0V61.2653Z" fill="#313E3E"/>
<path d="M0 109.633H25.0204C27.2295 109.633 29.0204 111.424 29.0204 113.633V124.98C29.0204 127.189 27.2295 128.98 25.0204 128.98H0V109.633Z" fill="#313E3E"/>
<path d="M0 158H25.0204C27.2295 158 29.0204 159.791 29.0204 162V173.347C29.0204 175.556 27.2295 177.347 25.0204 177.347H0V158Z" fill="#313E3E"/>
</svg>
