<svg width="285" height="286" viewBox="0 0 285 286" fill="none" xmlns="http://www.w3.org/2000/svg">
    <rect width="284.068" height="286" rx="16" fill="#FFF5D0"/>
    <path d="M71.5 138.86C75.1338 163.25 223.528 103.94 222.221 138.86" stroke="#4B4B4B" stroke-width="16" stroke-linecap="round"/>
    <path d="M71.5 78.9542C75.1338 103.345 223.528 44.0344 222.221 78.9542" stroke="#4B4B4B" stroke-width="16" stroke-linecap="round"/>
    <path d="M71.5 198.765C75.1338 223.155 223.528 163.845 222.221 198.765" stroke="#4B4B4B" stroke-width="16" stroke-linecap="round"/>
    <path d="M0 73.4324H30.7838C32.9929 73.4324 34.7838 75.2233 34.7838 77.4324V92.6216C34.7838 94.8308 32.9929 96.6216 30.7838 96.6216H0V73.4324Z" fill="#C9C0A2"/>
    <path d="M0 131.405H30.7838C32.9929 131.405 34.7838 133.196 34.7838 135.405V150.595C34.7838 152.804 32.9929 154.595 30.7838 154.595H0V131.405Z" fill="#C9C0A2"/>
    <path d="M0 189.378H30.7838C32.9929 189.378 34.7838 191.169 34.7838 193.378V208.568C34.7838 210.777 32.9929 212.568 30.7838 212.568H0V189.378Z" fill="#C9C0A2"/>
</svg>
